<!DOCTYPE svg PUBLIC "-//W3C//DTD SVG 1.1//EN" "http://www.w3.org/Graphics/SVG/1.1/DTD/svg11.dtd">
<!-- Uploaded to: SVG Repo, www.svgrepo.com, Transformed by: SVG Repo Mixer Tools -->
<svg width="65px" height="65px" viewBox="0 0 512 512" enable-background="new 0 0 512 512" id="flat" version="1.1" xml:space="preserve" xmlns="http://www.w3.org/2000/svg" xmlns:xlink="http://www.w3.org/1999/xlink" fill="#000000" stroke="#000000" stroke-width="5.12" transform="matrix(1, 0, 0, 1, 0, 0)">
<g id="SVGRepo_bgCarrier" stroke-width="0"/>
<g id="SVGRepo_tracerCarrier" stroke-linecap="round" stroke-linejoin="round"/>
<g id="SVGRepo_iconCarrier"> <path d="M300.293,55.805L384,88l0,0C369.755,40.517,326.051,8,276.478,8h0c-36.491,0-69.269,22.317-82.644,56.269 L143.14,192.951c-20.62,52.344-32.506,107.719-35.182,163.914L104,440h296l-8.381-10.352 C309.618,328.351,269.165,199.683,278.451,69.687v0C279.222,58.898,290.198,51.922,300.293,55.805z" fill="#111112"/> <path d="M112,128L112,128c-26.51,0-48,21.49-48,48v0v0c0-26.51-21.49-48-48-48h0h0c26.51,0,48-21.49,48-48v0v0 C64,106.51,85.49,128,112,128L112,128z" fill="#f7b418"/> <path d="M456,160L456,160c-26.51,0-48,21.49-48,48v0v0c0-26.51-21.49-48-48-48h0h0c26.51,0,48-21.49,48-48v0v0 C408,138.51,429.49,160,456,160L456,160z" fill="#f7b418"/> <path d="M176,256L176,256c-26.51,0-48,21.49-48,48v0v0c0-26.51-21.49-48-48-48h0h0c26.51,0,48-21.49,48-48v0v0 C128,234.51,149.49,256,176,256L176,256z" fill="#f7b418"/> <path d="M480,312L480,312c-26.51,0-48,21.49-48,48v0v0c0-26.51-21.49-48-48-48h0h0c26.51,0,48-21.49,48-48v0v0 C432,290.51,453.49,312,480,312L480,312z" fill="#f7b418"/> <path d="M496,488L496,488c-73.928,15.842-150.269,16.825-224.581,2.891L256,488l0,0 c-73.928-15.842-150.269-16.825-224.58-2.891L16,488l9.91-11.351C81.386,413.104,166.207,376,256,376h0 c89.793,0,174.614,37.104,230.09,100.649L496,488z" fill="#111112"/> <path d="M369.968,393.323l-54.073,18.837C242.635,437.681,155.952,442.231,80,425.349l0,0l16.023-66.97l0,0 c75.952,16.882,138.992,12.236,212.252-13.284L344,326.145L369.968,393.323z" fill="#E65C64"/> <path d="M261.741,433.872l-95.999,11.566c-8.583,1.034-16.379-5.086-17.413-13.668l-7.738-64.229 c-1.034-8.583,5.086-16.379,13.669-17.413l95.999-11.566c8.583-1.034,16.379,5.086,17.413,13.668l7.738,64.229 C276.444,425.042,270.324,432.838,261.741,433.872z" fill="#f7b418"/> <path d="M242.42,412.027l-63.098,7.602c-4.509,0.543-8.604-2.671-9.147-7.18l-3.774-31.328 c-0.543-4.509,2.671-8.604,7.18-9.147l63.098-7.602c4.509-0.543,8.604,2.671,9.147,7.18l3.774,31.328 C250.143,407.388,246.929,411.483,242.42,412.027z" fill="#973D42"/> <g> <path d="M144.449,407.656c-3.991,0-7.443-2.982-7.932-7.044c-0.529-4.387,2.599-8.371,6.985-8.899l47.655-5.741 c4.38-0.535,8.371,2.599,8.899,6.985s-2.599,8.371-6.985,8.899l-47.655,5.741C145.092,407.637,144.769,407.656,144.449,407.656z" fill="#2E303D"/> </g> </g>
</svg>